<?xml version="1.0" encoding="UTF-8"?>
<svg version="1.1" xmlns="http://www.w3.org/2000/svg" width="1065" height="434">
<path d="M0 0 C351.45 0 702.9 0 1065 0 C1065 143.22 1065 286.44 1065 434 C713.55 434 362.1 434 0 434 C0 290.78 0 147.56 0 0 Z " fill="#FEFEFE" transform="translate(0,0)"/>
<path d="M0 0 C3.80554823 0.0954797 3.80554823 0.0954797 6.125 2.125 C7.115 3.23875 7.115 3.23875 8.125 4.375 C10.72061426 5.86395701 13.40366086 7.13322389 16.125 8.375 C16.125 9.035 16.125 9.695 16.125 10.375 C17.0221875 10.63796875 17.919375 10.9009375 18.84375 11.171875 C35.56847822 17.30427535 50.79020316 38.18089955 58.73828125 53.48046875 C59.52330785 55.20363859 60.2793985 56.94067199 60.98950195 58.69604492 C62.0592814 61.21995158 63.26611417 63.59015527 64.5546875 66.0078125 C67.22683482 71.31178398 68.8816271 76.642375 70.375 82.375 C70.63023437 83.29539062 70.88546875 84.21578125 71.1484375 85.1640625 C72.58870118 90.54610046 73.49144451 95.6903292 73.80151367 101.25683594 C74.59273591 106.43769941 78.90496355 109.29166269 82.8125 112.25 C83.49828125 112.74371094 84.1840625 113.23742187 84.890625 113.74609375 C87.3415432 115.53286453 89.70094427 117.40932077 92.0625 119.3125 C96.07157894 122.54203581 100.12422385 125.70653039 104.21484375 128.83203125 C106.125 130.375 106.125 130.375 107.69140625 131.94921875 C109.27069185 133.61183184 109.27069185 133.61183184 112.125 135.375 C112.125 136.365 112.125 137.355 112.125 138.375 C112.8675 138.6225 113.61 138.87 114.375 139.125 C117.38766314 140.49439234 118.80016146 142.05016146 121.125 144.375 C122.74719603 145.55405955 124.39428691 146.69950113 126.0625 147.8125 C129.85842867 150.41382759 132.97945801 153.03881911 136.125 156.375 C137.115 157.035 138.105 157.695 139.125 158.375 C139.125 159.035 139.125 159.695 139.125 160.375 C139.8571875 160.6225 140.589375 160.87 141.34375 161.125 C144.40484606 162.50077351 146.20888861 164.05818086 148.625 166.375 C153.56961594 170.96378151 158.76999321 175.05237099 164.14453125 179.11328125 C165.12808594 179.85964844 166.11164063 180.60601562 167.125 181.375 C168.07761719 182.09042969 169.03023438 182.80585938 170.01171875 183.54296875 C170.70910156 184.14753906 171.40648437 184.75210938 172.125 185.375 C172.125 186.035 172.125 186.695 172.125 187.375 C172.805625 187.58125 173.48625 187.7875 174.1875 188 C179.68998955 190.57563341 183.93311688 195.04338744 188.125 199.375 C188.970625 200.2 189.81625 201.025 190.6875 201.875 C191.491875 202.7 192.29625 203.525 193.125 204.375 C193.764375 205.014375 194.40375 205.65375 195.0625 206.3125 C196.125 208.375 196.125 208.375 195.5 211.4375 C194.26075402 214.08498004 193.43837103 215.63997173 191.125 217.375 C190.465 217.375 189.805 217.375 189.125 217.375 C188.795 218.365 188.465 219.355 188.125 220.375 C186.0078125 222.3203125 186.0078125 222.3203125 183.25 224.5 C182.25097656 225.29792969 181.25195312 226.09585938 180.22265625 226.91796875 C178.68931641 228.13419922 178.68931641 228.13419922 177.125 229.375 C175.30954582 230.85053936 173.49697091 232.32962937 171.6875 233.8125 C170.78386719 234.55113281 169.88023437 235.28976563 168.94921875 236.05078125 C165.95212677 238.51726774 162.97528196 241.00732357 160 243.5 C156.62945936 246.31742628 153.24239007 249.08543572 149.75 251.75 C145.08518661 255.32720663 140.67144395 259.17812952 136.22949219 263.02490234 C132.48419274 266.25371457 128.67146036 269.30749146 124.66015625 272.203125 C122.93364806 273.46156172 122.93364806 273.46156172 120.9375 275.625 C119.125 277.375 119.125 277.375 116.5 278.375 C114.01061763 279.10341528 114.01061763 279.10341528 113.3671875 281.08984375 C111.55172393 284.42961164 108.75569044 286.54237164 105.875 288.9375 C105.2552832 289.46053711 104.63556641 289.98357422 103.99707031 290.52246094 C99.68607054 294.13708518 95.29950538 297.65078549 90.875 301.125 C90.29685547 301.58495361 89.71871094 302.04490723 89.12304688 302.51879883 C86.50139328 304.58980078 83.91381454 306.50998452 81.09375 308.3125 C77.08021379 310.9881908 74.56958329 312.7764761 73.24609375 317.53515625 C72.94678351 320.05637314 72.7082908 322.58529275 72.51953125 325.1171875 C71.50654893 338.50862564 66.52714696 350.9020395 60.10888672 362.54052734 C59.05416484 364.50707329 58.09334614 366.50733967 57.12890625 368.51953125 C55.47696466 371.84709386 53.54813031 374.54109141 51.125 377.375 C49.93963598 378.94357215 48.75437645 380.51222667 47.57226562 382.08325195 C38.73881114 393.77046005 38.73881114 393.77046005 34.125 397.375 C33.465 397.375 32.805 397.375 32.125 397.375 C32.125 398.035 32.125 398.695 32.125 399.375 C30.4705812 400.73503823 28.74903955 402.01401205 27 403.25 C25.99066406 403.96414063 24.98132813 404.67828125 23.94140625 405.4140625 C23.01199219 406.06117188 22.08257812 406.70828125 21.125 407.375 C20.073125 408.1175 19.02125 408.86 17.9375 409.625 C14.9990871 411.4533458 12.01010246 412.92494405 8.859375 414.34765625 C6.79433413 415.40171473 6.79433413 415.40171473 5.125 418.375 C2.9609375 419.10546875 2.9609375 419.10546875 0.5 419.5625 C-0.31726563 419.72105469 -1.13453125 419.87960937 -1.9765625 420.04296875 C-2.91628906 420.20732422 -2.91628906 420.20732422 -3.875 420.375 C-7.32473606 415.20039591 -6.35673971 408.88624144 -6.375 402.8125 C-6.38200928 401.76628983 -6.38200928 401.76628983 -6.38916016 400.69894409 C-6.41870426 389.05336324 -4.77833249 379.01348032 0.125 368.375 C0.785 368.375 1.445 368.375 2.125 368.375 C2.25777344 367.78847656 2.39054687 367.20195312 2.52734375 366.59765625 C6.46554607 351.951662 19.40221762 339.19601398 31.3828125 330.6796875 C33.37552216 329.25180441 33.37552216 329.25180441 35.8125 326.6875 C38.95904684 323.54095316 41.41589949 321.48894003 45.9375 321.1875 C46.659375 321.249375 47.38125 321.31125 48.125 321.375 C47.83296788 324.05196106 47.4926764 326.70823864 47.125 329.375 C47.01091797 330.50808594 47.01091797 330.50808594 46.89453125 331.6640625 C46.0179176 337.6662877 43.66803946 340.37595514 39 344.16015625 C37.125 345.375 37.125 345.375 35.125 345.375 C34.8878125 345.93703125 34.650625 346.4990625 34.40625 347.078125 C32.83552303 349.89394042 30.91028536 351.85455416 28.625 354.125 C27.8309375 354.92421875 27.036875 355.7234375 26.21875 356.546875 C24.125 358.375 24.125 358.375 22.125 358.375 C21.75375 359.35533203 21.75375 359.35533203 21.375 360.35546875 C20.3962255 362.7198209 19.3642421 365.00046352 18.25 367.30078125 C17.90453125 368.01556641 17.5590625 368.73035156 17.203125 369.46679688 C16.48897563 370.93778933 15.77027806 372.40658306 15.046875 373.87304688 C12.74209071 378.6675142 11.26561546 383.17705242 10.125 388.375 C9.45833333 391.04166667 8.79166667 393.70833333 8.125 396.375 C13.85773041 394.13936004 17.9810019 392.06426101 22.125 387.375 C23.34411909 386.09452481 24.57382446 384.82406687 25.8125 383.5625 C26.39386719 382.95792969 26.97523438 382.35335938 27.57421875 381.73046875 C29.125 380.375 29.125 380.375 31.125 380.375 C31.33125 379.694375 31.5375 379.01375 31.75 378.3125 C32.97874012 375.6874643 33.97583706 374.28552817 35.875 372.1875 C39.63753649 367.9661176 42.37719968 363.2991208 45.125 358.375 C45.48464844 357.73949219 45.84429687 357.10398437 46.21484375 356.44921875 C59.53433619 331.46848394 61.70629112 302.90753871 53.92089844 275.92919922 C50.70026819 265.59354473 46.61745014 256.09062246 40.125 247.375 C37.125 242.675 37.125 242.675 37.125 240.375 C36.135 240.045 35.145 239.715 34.125 239.375 C32.7578125 237.94921875 32.7578125 237.94921875 31.25 236.0625 C23.9228827 227.4624513 15.56384891 219.01448841 5.125 214.375 C5.125 213.715 5.125 213.055 5.125 212.375 C3.45875614 211.70727728 1.79197889 211.04088559 0.125 210.375 C-0.82375 209.99601563 -1.7725 209.61703125 -2.75 209.2265625 C-10.36365352 206.23820349 -17.99373735 203.56788402 -25.875 201.375 C-27.45474609 200.92253906 -27.45474609 200.92253906 -29.06640625 200.4609375 C-49.83101275 195.21462606 -72.18722582 198.25711102 -91.7746582 206.49902344 C-93.44654746 207.19630795 -95.15648976 207.80216325 -96.875 208.375 C-96.875 209.035 -96.875 209.695 -96.875 210.375 C-96.19953125 210.64054688 -95.5240625 210.90609375 -94.828125 211.1796875 C-93.49007812 211.70949219 -93.49007812 211.70949219 -92.125 212.25 C-90.80242187 212.77207031 -90.80242187 212.77207031 -89.453125 213.3046875 C-86.875 214.375 -86.875 214.375 -85.05078125 215.375 C-66.62626675 223.84299948 -41.52464195 222.62711716 -22.58447266 217.06665039 C-16.52097203 215.295591 -11.83037865 214.83306331 -6 217.875 C-3.875 219.375 -3.875 219.375 -2.875 220.375 C-2.83407063 222.70797433 -2.83258277 225.04205225 -2.875 227.375 C-5.95690762 229.06461053 -8.89970376 229.99287322 -12.3125 230.8125 C-13.36824219 231.06644531 -14.42398438 231.32039062 -15.51171875 231.58203125 C-16.62160156 231.84371094 -17.73148437 232.10539063 -18.875 232.375 C-19.99519531 232.64699219 -21.11539063 232.91898438 -22.26953125 233.19921875 C-49.52594355 239.70395044 -73.76976913 235.41302799 -99.875 226.375 C-100.68727051 226.1054248 -101.49954102 225.83584961 -102.33642578 225.55810547 C-107.64291378 223.72312933 -107.64291378 223.72312933 -109.875 220.375 C-111.65306073 219.26312221 -111.65306073 219.26312221 -113.6875 218.375 C-114.39777344 218.03339844 -115.10804687 217.69179687 -115.83984375 217.33984375 C-116.51144531 217.02144531 -117.18304688 216.70304688 -117.875 216.375 C-122.55192308 214.03653846 -122.55192308 214.03653846 -124.1875 210.6875 C-124.5278125 209.5428125 -124.5278125 209.5428125 -124.875 208.375 C-120.2969761 203.45786321 -114.83216778 200.7719904 -108.875 197.8125 C-108.27171875 197.50892578 -107.6684375 197.20535156 -107.046875 196.89257812 C-103.70504622 195.22529616 -100.34094982 193.75804729 -96.875 192.375 C-95.50988281 191.65183594 -95.50988281 191.65183594 -94.1171875 190.9140625 C-90.16709385 189.0389578 -86.21073134 187.88879545 -82 186.75 C-81.23558594 186.5334375 -80.47117188 186.316875 -79.68359375 186.09375 C-70.34385344 183.52492499 -61.4017402 183.16243041 -51.7409668 183.13476562 C-49.70904916 183.12510248 -47.67816411 183.094018 -45.64648438 183.0625 C-37.00070189 182.9926238 -29.19792194 184.02933577 -20.875 186.375 C-18.97814453 186.88353516 -18.97814453 186.88353516 -17.04296875 187.40234375 C-9.99088059 189.55586477 -3.79163908 192.18070142 2.62109375 195.7734375 C3.48863281 196.24007812 4.35617188 196.70671875 5.25 197.1875 C6.03632813 197.62707031 6.82265625 198.06664062 7.6328125 198.51953125 C10.9750592 199.66679148 12.75100791 199.4237313 16.125 198.375 C18.30629042 196.73975066 20.13675743 195.20185454 22.0625 193.3125 C22.58610107 192.81371338 23.10970215 192.31492676 23.64916992 191.80102539 C30.19525108 185.49405198 35.6421191 178.88216914 40.64453125 171.28125 C41.13308594 170.6521875 41.62164062 170.023125 42.125 169.375 C42.785 169.375 43.445 169.375 44.125 169.375 C44.2075 168.715 44.29 168.055 44.375 167.375 C45.02471193 164.77615228 45.75172984 163.01722225 46.98046875 160.68359375 C60.1397454 134.79600823 61.36905821 106.01205414 53.125 78.375 C51.92329468 75.30521857 50.55920562 72.34180708 49.125 69.375 C48.47916667 67.85416667 47.83333333 66.33333333 47.1875 64.8125 C43.95046472 57.5730839 39.57175235 51.48894582 34.578125 45.35546875 C33.125 43.375 33.125 43.375 32.125 40.375 C31.5475 40.08625 30.97 39.7975 30.375 39.5 C26.61989542 37.62244771 24.07474048 34.41891306 21.2734375 31.33984375 C17.07310025 26.87191745 14.23269222 24.3929487 8.125 23.375 C11.72060155 39.39177056 16.75031393 56.42369427 30.33984375 66.7265625 C32.39064215 68.62029756 32.54768208 69.72155801 33.125 72.375 C35.61534386 73.67160434 35.61534386 73.67160434 38.125 74.375 C38.125 75.035 38.125 75.695 38.125 76.375 C38.785 76.375 39.445 76.375 40.125 76.375 C40.125 77.035 40.125 77.695 40.125 78.375 C41.115 78.375 42.105 78.375 43.125 78.375 C43.125 79.035 43.125 79.695 43.125 80.375 C43.785 80.375 44.445 80.375 45.125 80.375 C45.65864887 82.43422133 46.17642189 84.49756107 46.6875 86.5625 C46.97753906 87.71105469 47.26757812 88.85960938 47.56640625 90.04296875 C48.10568761 93.25980093 48.00747476 95.27172783 47.125 98.375 C41.59286496 97.98903709 39.91810132 96.24353231 36.125 92.375 C33.10976404 89.89462123 29.97714791 87.56360377 26.85742188 85.21679688 C25.24535579 83.9800266 23.68053793 82.68215704 22.125 81.375 C22.125 80.715 22.125 80.055 22.125 79.375 C21.55523437 79.14683594 20.98546875 78.91867188 20.3984375 78.68359375 C12.15671727 73.93964826 7.30956335 63.55039692 3.125 55.375 C2.444375 54.281875 1.76375 53.18875 1.0625 52.0625 C-4.85564323 41.53432088 -6.64387597 31.63982365 -6.36206055 19.75683594 C-6.31156354 17.58471828 -6.3005015 15.41484614 -6.29492188 13.2421875 C-6.16691774 0.59679849 -6.16691774 0.59679849 0 0 Z " fill="#050505" transform="translate(130.875,6.625)"/>
<path d="M0 0 C3.84936586 0.51063017 5.67506755 1.22494982 8.25 4.125 C11.44766894 7.51563172 14.83841913 10.30431111 18.546875 13.1171875 C21.24651011 15.18920044 23.87370347 17.33587297 26.5 19.5 C29.85742193 22.26273213 33.23859593 24.97747639 36.6875 27.625 C40.1897412 30.32761445 43.51800443 33.17270193 46.828125 36.10546875 C54.79512123 43.12100798 54.79512123 43.12100798 63.4375 49.25 C66.26021306 51.17770648 67.9376146 53.29756396 70 56 C71.485 56.99 71.485 56.99 73 58 C73 58.66 73 59.32 73 60 C74.65 60.33 76.3 60.66 78 61 C78.061875 61.61875 78.12375 62.2375 78.1875 62.875 C78.5896875 63.926875 78.5896875 63.926875 79 65 C79.74507813 65.28746094 80.49015625 65.57492188 81.2578125 65.87109375 C84.43353484 67.17847802 86.21693592 68.81494177 88.6875 71.1875 C92.90896413 75.13599728 97.26324288 78.34094364 102.1640625 81.39453125 C102.76992188 81.92433594 103.37578125 82.45414062 104 83 C104 87 104 87 101.91015625 89.11328125 C100.97042969 89.83902344 100.03070313 90.56476563 99.0625 91.3125 C97.55623047 92.49199219 97.55623047 92.49199219 96.01953125 93.6953125 C95.02308594 94.45585937 94.02664063 95.21640625 93 96 C91.41604878 97.22837033 89.83265365 98.45745831 88.25 99.6875 C87.53199219 100.23921875 86.81398438 100.7909375 86.07421875 101.359375 C84.01033673 102.99182406 82.03525164 104.69659752 80.0625 106.4375 C77 109 77 109 75 109 C74.62875 109.9590625 74.62875 109.9590625 74.25 110.9375 C72.67012061 113.544301 71.83219689 113.29195078 69 114 C68.74089844 114.57363281 68.48179687 115.14726562 68.21484375 115.73828125 C66.54789079 118.84170815 64.29756388 120.47882032 61.5625 122.6875 C60.75897095 123.34214233 60.75897095 123.34214233 59.93920898 124.01000977 C58.29760917 125.34606074 56.64904611 126.67315829 55 128 C53.18618111 129.47754909 51.37361956 130.95664342 49.5625 132.4375 C48.67046875 133.16453125 47.7784375 133.8915625 46.859375 134.640625 C44.22061923 136.817959 41.60999951 139.02365614 39.00683594 141.24316406 C24.04192022 154 24.04192022 154 21 154 C21 154.66 21 155.32 21 156 C19.48772933 157.3302109 17.91330976 158.59027591 16.3125 159.8125 C13.41156582 162.05970253 10.65321328 164.21726148 8.1875 166.9375 C5.69761622 169.28510471 4.29991458 169.4818316 1 170 C0.88970459 169.40356689 0.77940918 168.80713379 0.66577148 168.19262695 C-0.56666234 161.75963439 -2.13795849 155.48362887 -3.9375 149.1875 C-4.18951172 148.27291016 -4.44152344 147.35832031 -4.70117188 146.41601562 C-6.00773175 141.82133575 -7.39543406 138.04106748 -10 134 C-11.24610284 130.40014736 -12.09515484 126.69908201 -13 123 C-13.25910156 121.97261719 -13.51820313 120.94523437 -13.78515625 119.88671875 C-20.29979098 93.0752321 -22.07338339 56.29179476 -7.4765625 31.40234375 C-6.98929688 30.60957031 -6.50203125 29.81679687 -6 29 C-4.97436354 26.35516725 -4.16456483 23.66096622 -3.375 20.9375 C-3.15626221 20.19250244 -2.93752441 19.44750488 -2.7121582 18.67993164 C-0.97535049 12.48977082 -0.13643888 6.4374342 0 0 Z " fill="#F9F9F9" transform="translate(203,131)"/>
<path d="M0 0 C0.84755859 0.00966797 1.69511719 0.01933594 2.56835938 0.02929688 C3.44943359 0.05443359 4.33050781 0.07957031 5.23828125 0.10546875 C6.13095703 0.11900391 7.02363281 0.13253906 7.94335938 0.14648438 C10.14644291 0.18182796 12.34830707 0.23116382 14.55078125 0.29296875 C16.99958599 4.04075721 16.7919288 7.73760798 16.7109375 12.05078125 C16.70573593 12.79504364 16.70053436 13.53930603 16.69517517 14.30612183 C16.67740361 16.67693863 16.64622699 19.04731807 16.61328125 21.41796875 C16.58566652 23.79571706 16.56096872 26.17340483 16.542099 28.55123901 C16.52983779 30.02926131 16.51223004 31.50725075 16.48878479 32.98513794 C16.38474825 36.76389789 16.38474825 36.76389789 17.55078125 40.29296875 C18.62336182 40.30231445 19.69594238 40.31166016 20.80102539 40.32128906 C24.85512911 40.36175187 28.90851781 40.42765266 32.9621582 40.50048828 C34.70262328 40.52837675 36.44320745 40.54974752 38.18383789 40.56396484 C53.52209547 40.69661048 67.77933983 41.35430617 79.55078125 52.29296875 C80.29714844 52.87820312 81.04351563 53.4634375 81.8125 54.06640625 C90.94055135 61.41224045 98.17234426 72.51359807 99.55078125 84.29296875 C99.70927832 87.58594434 99.73583222 90.87157121 99.73828125 94.16796875 C99.75052734 95.02777344 99.76277344 95.88757813 99.77539062 96.7734375 C99.80825552 111.21207986 93.80470247 123.32642942 83.703125 133.51953125 C78.67723585 138.19919606 72.66389175 141.255882 66.55078125 144.29296875 C65.89980469 144.67195312 65.24882813 145.0509375 64.578125 145.44140625 C55.1716492 149.39248857 38.05749753 148.96797886 28.55078125 145.29296875 C16.93669757 140.11632098 16.93669757 140.11632098 12.55078125 136.29296875 C12.55078125 135.63296875 12.55078125 134.97296875 12.55078125 134.29296875 C11.89078125 134.29296875 11.23078125 134.29296875 10.55078125 134.29296875 C8.00114972 131.82219181 5.8144833 129.02453406 3.55078125 126.29296875 C3.00550781 125.69226563 2.46023438 125.0915625 1.8984375 124.47265625 C-5.74369313 115.48877749 -6.67946071 104.53344315 -7.0390625 93.21875 C-7.09685883 91.55325356 -7.09685883 91.55325356 -7.15582275 89.85411072 C-7.62687447 74.72480118 -7.67261614 59.58834054 -7.68945312 44.45288086 C-7.69504903 40.14465695 -7.71939272 35.83673169 -7.74742508 31.52860355 C-7.76597467 28.17867601 -7.77125181 24.82882399 -7.772789 21.47884941 C-7.77580798 19.88760083 -7.78381097 18.29635333 -7.79697418 16.70515633 C-7.8139541 14.50509327 -7.81218084 12.3058141 -7.80566406 10.10571289 C-7.80930969 8.85842911 -7.81295532 7.61114532 -7.81671143 6.32606506 C-7.44921875 3.29296875 -7.44921875 3.29296875 -6.05723572 1.38845825 C-3.92760897 -0.06238697 -2.56329762 -0.05161002 0 0 Z " fill="#020202" transform="translate(929.44921875,117.70703125)"/>
<path d="M0 0 C1.82373675 0.72655911 3.60408922 1.55943309 5.37890625 2.3984375 C6.70651038 2.71516214 8.04045061 3.00626017 9.37890625 3.2734375 C16.60748566 5.01680077 21.5992654 8.98026496 25.76171875 15.04296875 C27.40509613 16.65928979 27.40509613 16.65928979 30.2734375 16.8359375 C34.04390124 16.30475267 35.26705806 15.24114903 37.94140625 12.5859375 C47.16316803 3.56143266 61.16049553 -0.77847126 73.94140625 -1.4140625 C85.84066813 -0.88491962 98.59539354 4.3399789 107.37890625 12.3984375 C108.384375 13.19701172 108.384375 13.19701172 109.41015625 14.01171875 C117.83419896 20.84839521 124.19816895 30.66225489 126.37890625 41.3984375 C126.46587681 43.47606389 126.49659052 45.55630043 126.49243164 47.63574219 C126.49235611 48.89674744 126.49228058 50.15775269 126.49220276 51.45697021 C126.48709653 52.82808471 126.48188055 54.19919881 126.4765625 55.5703125 C126.47469653 56.97707061 126.47327347 58.38382938 126.47227478 59.79058838 C126.46846369 63.48624477 126.45864545 67.18186163 126.4475708 70.87750244 C126.43732639 74.65140244 126.43277067 78.42530885 126.42773438 82.19921875 C126.41702189 89.59897632 126.39996241 96.99870136 126.37890625 104.3984375 C122.37010043 106.63400026 118.82044621 106.697086 114.31640625 106.6484375 C113.23649414 106.66003906 113.23649414 106.66003906 112.13476562 106.671875 C108.34956262 106.65781668 106.6003016 106.5460344 103.37890625 104.3984375 C102.35122785 101.31540231 102.24250511 99.16794467 102.22119141 95.93652344 C102.21092926 94.81816101 102.20066711 93.69979858 102.19009399 92.54754639 C102.18279266 91.3381842 102.17549133 90.12882202 102.16796875 88.8828125 C102.13989702 86.32681655 102.11123254 83.77082705 102.08203125 81.21484375 C102.03964902 77.1815129 102.00286067 73.14822169 101.97753906 69.11474609 C101.94989925 65.22468095 101.90402208 61.33516536 101.85546875 57.4453125 C101.85058945 55.64341461 101.85058945 55.64341461 101.84561157 53.80511475 C101.75396095 47.54824683 101.36550778 42.93060148 98.37890625 37.3984375 C97.97671875 36.3465625 97.97671875 36.3465625 97.56640625 35.2734375 C93.17690218 28.3426416 85.35709962 25.61713469 77.74609375 23.75390625 C69.8429971 22.5212075 63.34345569 24.64475696 56.37890625 28.3984375 C53.66329976 30.48371997 51.51618089 32.7344992 49.37890625 35.3984375 C48.59515625 36.2853125 47.81140625 37.1721875 47.00390625 38.0859375 C44.27851515 41.96437868 44.25111336 45.46543095 44.22119141 50.12915039 C44.20579819 51.85597801 44.20579819 51.85597801 44.19009399 53.61769104 C44.18279266 54.85631393 44.17549133 56.09493683 44.16796875 57.37109375 C44.13991446 59.98763662 44.11125011 62.604173 44.08203125 65.22070312 C44.03952214 69.35095894 44.00271775 73.48117283 43.97753906 77.61157227 C43.95261225 81.59412966 43.9041819 85.57625455 43.85546875 89.55859375 C43.85221588 90.79924088 43.84896301 92.039888 43.84561157 93.31813049 C43.82076187 95.04022987 43.82076187 95.04022987 43.79541016 96.79711914 C43.7873233 97.80875626 43.77923645 98.82039337 43.77090454 99.86268616 C43.37890625 102.3984375 43.37890625 102.3984375 42.04037476 104.1860199 C38.12276643 107.04480252 33.80441026 106.51331222 29.19140625 106.4609375 C28.44181641 106.45642578 27.69222656 106.45191406 26.91992188 106.44726562 C25.07288242 106.43550104 23.22588412 106.41756615 21.37890625 106.3984375 C19.42435261 103.11680182 19.13660882 100.68127923 19.15527344 96.88647461 C19.1547699 95.78109848 19.15426636 94.67572235 19.15374756 93.53684998 C19.16101868 92.3451973 19.16828979 91.15354462 19.17578125 89.92578125 C19.1652273 87.39127092 19.15346991 84.85676538 19.140625 82.32226562 C19.13033774 78.33497104 19.12884128 74.34883653 19.14892578 70.36157227 C19.16377068 66.5074057 19.14113656 62.65484536 19.11328125 58.80078125 C19.13633331 57.03455666 19.13633331 57.03455666 19.15985107 55.23265076 C19.0552781 46.24102146 16.72050538 39.23390513 10.63763428 32.45909119 C8.97877273 30.87737962 7.3052166 29.63877398 5.37890625 28.3984375 C4.74597656 27.98722656 4.11304688 27.57601562 3.4609375 27.15234375 C-4.33139935 22.92723052 -13.58869555 22.94971681 -21.97265625 25.36328125 C-29.84662275 28.80191219 -34.39073307 34.01558885 -38.62109375 41.3984375 C-39.66330404 44.52506838 -39.75165641 46.71926544 -39.76293945 49.99975586 C-39.76997391 51.14782211 -39.77700836 52.29588837 -39.78425598 53.47874451 C-39.78842026 54.71939163 -39.79258453 55.96003876 -39.796875 57.23828125 C-39.8200665 59.85352373 -39.84418356 62.46875814 -39.86914062 65.08398438 C-39.9055704 69.21639049 -39.93531902 73.34864574 -39.94702148 77.48120117 C-39.95903537 81.46300824 -40.00262767 85.44419828 -40.046875 89.42578125 C-40.04496658 90.66440414 -40.04305817 91.90302704 -40.04109192 93.17918396 C-40.05758286 94.33040237 -40.07407379 95.48162079 -40.09106445 96.66772461 C-40.09693069 97.68015732 -40.10279694 98.69259003 -40.10884094 99.73570251 C-40.76292424 103.13568482 -41.887418 104.32578103 -44.62109375 106.3984375 C-47.46329987 106.74454722 -49.86054806 106.86999532 -52.68359375 106.7734375 C-53.40353516 106.77214844 -54.12347656 106.77085937 -54.86523438 106.76953125 C-58.62368897 106.70671585 -60.42910863 106.52642758 -63.62109375 104.3984375 C-64.00204468 101.82676697 -64.00204468 101.82676697 -64.00927734 98.53100586 C-64.01873383 97.29889877 -64.02819031 96.06679169 -64.03793335 94.79734802 C-64.03255966 93.44432253 -64.02640573 92.09129995 -64.01953125 90.73828125 C-64.0215528 89.35022326 -64.02446492 87.9621663 -64.02822876 86.57411194 C-64.03265863 83.65778542 -64.02620703 80.74173402 -64.01220703 77.82543945 C-63.99522551 74.1089115 -64.00488082 70.39303879 -64.02292442 66.67653561 C-64.03384011 63.80494893 -64.03027869 60.93351368 -64.02254105 58.06192207 C-64.02055463 56.69335412 -64.02294288 55.32477193 -64.02997971 53.95622063 C-64.06096649 46.22644469 -63.74781173 39.53309758 -60.62109375 32.3984375 C-60.27046875 31.56570312 -59.91984375 30.73296875 -59.55859375 29.875 C-59.24921875 29.26398438 -58.93984375 28.65296875 -58.62109375 28.0234375 C-58.31171875 27.39695313 -58.00234375 26.77046875 -57.68359375 26.125 C-56.62109375 24.3984375 -56.62109375 24.3984375 -55.05859375 22.859375 C-53.35946333 21.34682398 -53.35946333 21.34682398 -52.62109375 18.3984375 C-51.96109375 18.3984375 -51.30109375 18.3984375 -50.62109375 18.3984375 C-50.62109375 17.7384375 -50.62109375 17.0784375 -50.62109375 16.3984375 C-49.17667583 15.14660863 -47.72810868 13.89754309 -46.2265625 12.71484375 C-44.59183175 11.42140754 -44.59183175 11.42140754 -43.13671875 9.89453125 C-37.71666241 4.544321 -31.4723923 2.56859364 -24.16015625 0.9765625 C-16.31222811 -0.81035037 -8.12232189 -1.86413945 0 0 Z " fill="#030303" transform="translate(483.62109375,158.6015625)"/>
<path d="M0 0 C4.40525163 2.98040763 8.30701965 6.28537787 11.8828125 10.21875 C15.20869346 9.21090729 17.46805438 7.82621216 20.0078125 5.53125 C31.79889292 -4.85916212 43.68246979 -8.56620639 59.17578125 -8.078125 C63.09359952 -7.76436927 66.2882288 -7.05452969 69.91015625 -5.58203125 C73.13921562 -4.27122497 76.49642093 -3.58166982 79.8828125 -2.78125 C79.8828125 -2.12125 79.8828125 -1.46125 79.8828125 -0.78125 C80.8728125 -0.78125 81.8628125 -0.78125 82.8828125 -0.78125 C82.8828125 -0.12125 82.8828125 0.53875 82.8828125 1.21875 C83.61628906 1.47527344 84.34976563 1.73179687 85.10546875 1.99609375 C96.19183008 6.87658756 102.10894616 18.0719546 106.90234375 28.54296875 C108.67340084 33.37633172 109.00989597 38.15315015 109.04394531 43.26831055 C109.05355286 44.43939865 109.0631604 45.61048676 109.07305908 46.81706238 C109.0794339 48.69232353 109.0794339 48.69232353 109.0859375 50.60546875 C109.09163757 51.89943069 109.09733765 53.19339264 109.10321045 54.52656555 C109.11367301 57.25575144 109.11954828 59.98490825 109.12304688 62.71411133 C109.12855689 66.21134093 109.15265728 69.70818616 109.18101883 73.20529461 C109.20409284 76.54701245 109.20608909 79.88867534 109.2109375 83.23046875 C109.2232843 84.48671555 109.2356311 85.74296234 109.24835205 87.03727722 C109.24535095 88.19890884 109.24234985 89.36054047 109.23925781 90.55737305 C109.24472626 92.09242744 109.24472626 92.09242744 109.25030518 93.65849304 C108.8828125 96.21875 108.8828125 96.21875 107.60247803 98.04768372 C104.56627206 100.11529418 100.98840527 99.647298 97.4453125 99.59375 C96.68154297 99.60535156 95.91777344 99.61695313 95.13085938 99.62890625 C94.39029297 99.62503906 93.64972656 99.62117188 92.88671875 99.6171875 C91.87847046 99.61211182 91.87847046 99.61211182 90.84985352 99.60693359 C88.14076383 99.0723112 86.87095862 98.13678305 84.8828125 96.21875 C84.41093445 93.60948181 84.41093445 93.60948181 84.44799805 90.43725586 C84.45087326 89.2484935 84.45374847 88.05973114 84.45671082 86.83494568 C84.47744156 85.54749954 84.4981723 84.26005341 84.51953125 82.93359375 C84.52232664 81.59420559 84.52234992 80.25480904 84.51972961 78.91542053 C84.51322373 73.2333537 84.55318742 67.55203283 84.6184082 61.87036133 C84.65642801 58.3911395 84.65985278 54.91317768 84.64338112 51.43380928 C84.64450414 49.48074018 84.6846493 47.52781689 84.72575378 45.57518005 C84.6783193 36.8481424 82.77162602 31.69528092 76.8828125 25.21875 C71.12609759 19.65687775 62.886829 16.67081638 55.0078125 15.78125 C48.50822432 16.69119235 43.50030229 18.79725689 37.8984375 22.09765625 C35.8828125 23.21875 35.8828125 23.21875 32.8828125 24.21875 C32.15825615 25.86107772 31.50506855 27.53499835 30.8828125 29.21875 C29.88733875 30.96282001 28.84944228 32.67214236 27.78515625 34.375 C25.85244491 38.32408983 25.75893154 42.45886005 25.75683594 46.78759766 C25.75302917 47.87867828 25.74922241 48.96975891 25.74530029 50.09390259 C25.74427307 51.26174286 25.74324585 52.42958313 25.7421875 53.6328125 C25.7238733 56.1093843 25.7043043 58.58594708 25.68359375 61.0625 C25.65452452 64.96467475 25.6328097 68.86626424 25.63232422 72.76855469 C25.62900501 76.53633495 25.59456106 80.30276532 25.5546875 84.0703125 C25.5617572 85.24220123 25.5688269 86.41408997 25.57611084 87.62149048 C25.55969543 88.70626678 25.54328003 89.79104309 25.52636719 90.90869141 C25.52272156 91.86401764 25.51907593 92.81934387 25.51531982 93.80361938 C24.8828125 96.21875 24.8828125 96.21875 22.53985596 98.02572632 C19.31565264 99.47340716 16.90905802 99.61846667 13.3828125 99.59375 C12.279375 99.60148437 11.1759375 99.60921875 10.0390625 99.6171875 C6.47339537 99.16706615 4.72260462 98.398988 1.8828125 96.21875 C1.26376343 93.86849976 1.26376343 93.86849976 1.27099609 91.06396484 C1.26103607 90.01212006 1.25107605 88.96027527 1.24081421 87.8765564 C1.25415802 86.73908966 1.26750183 85.60162292 1.28125 84.4296875 C1.27324371 83.25669098 1.26523743 82.08369446 1.25698853 80.87515259 C1.23385283 77.1143371 1.24339761 73.35459531 1.2578125 69.59375 C1.26166687 65.85452741 1.25813247 62.11578658 1.23721313 58.37661743 C1.22518342 56.04931473 1.2276942 53.7218772 1.24691772 51.3946228 C1.21882564 43.16642781 -0.00205786 35.94279544 -4.4921875 28.90625 C-4.87117187 28.29136719 -5.25015625 27.67648438 -5.640625 27.04296875 C-10.61956442 20.89173936 -17.67236873 18.24216978 -25.1171875 16.21875 C-33.03644586 15.48430265 -40.45762104 18.00998672 -47.1171875 22.21875 C-52.97251336 27.50777609 -57.83763394 33.81229657 -58.25521851 41.88821411 C-58.26171417 42.90366302 -58.26820984 43.91911194 -58.27490234 44.96533203 C-58.29029556 46.69700119 -58.29029556 46.69700119 -58.30599976 48.46365356 C-58.31330109 49.70541351 -58.32060242 50.94717346 -58.328125 52.2265625 C-58.35617595 54.84766268 -58.38484027 57.46875636 -58.4140625 60.08984375 C-58.45660061 64.22897011 -58.49340414 68.36805406 -58.51855469 72.50732422 C-58.54344703 76.49728776 -58.59187542 80.48681734 -58.640625 84.4765625 C-58.64387787 85.72237091 -58.64713074 86.96817932 -58.65048218 88.2517395 C-58.66704865 89.39988129 -58.68361511 90.54802307 -58.70068359 91.73095703 C-58.70877045 92.74481476 -58.7168573 93.75867249 -58.72518921 94.80325317 C-58.85454865 95.60036713 -58.98390808 96.39748108 -59.1171875 97.21875 C-62.96037181 99.78087287 -66.16412705 99.54983539 -70.6171875 99.53125 C-71.77541016 99.55541992 -71.77541016 99.55541992 -72.95703125 99.58007812 C-78.57754406 99.58494859 -78.57754406 99.58494859 -80.83706665 98.051651 C-82.62979183 95.48479352 -82.49814096 93.6463525 -82.50537109 90.52905273 C-82.51955582 88.77594032 -82.51955582 88.77594032 -82.5340271 86.9874115 C-82.52795441 85.72183914 -82.52188171 84.45626678 -82.515625 83.15234375 C-82.51849518 81.84854263 -82.52136536 80.54474152 -82.52432251 79.20143127 C-82.52874799 76.43650688 -82.52231529 73.67187302 -82.50830078 70.90698242 C-82.49132564 67.38898636 -82.50097308 63.87168289 -82.51901817 60.35371304 C-82.53258235 56.9740373 -82.52302702 53.59453907 -82.515625 50.21484375 C-82.52169769 48.96344101 -82.52777039 47.71203827 -82.5340271 46.42271423 C-82.4034145 29.97533261 -76.52447845 17.62604095 -64.92578125 6.02734375 C-59.65089962 1.21875 -59.65089962 1.21875 -56.1171875 1.21875 C-56.1171875 0.55875 -56.1171875 -0.10125 -56.1171875 -0.78125 C-52.73621665 -3.31697813 -49.42637366 -4.36396015 -45.375 -5.25390625 C-43.50267343 -5.69121436 -41.6559723 -6.23658128 -39.8203125 -6.80859375 C-25.90957436 -10.46236358 -12.23662421 -6.99235669 0 0 Z " fill="#030303" transform="translate(697.1171875,165.78125)"/>
<path d="M0 0 C1.49080078 0.41958984 1.49080078 0.41958984 3.01171875 0.84765625 C18.08825795 5.17274938 28.94157242 12.27612967 37 26 C41.26030167 34.76589344 42.18070943 42.73239212 42.1875 52.375 C42.19974609 53.2825 42.21199219 54.19 42.22460938 55.125 C42.25776152 70.46339157 35.32531617 81.94649697 25 93 C21.27444321 95.96523908 17.21742348 97.99172896 12.9453125 100.0546875 C11.23246686 100.88703418 9.55066915 101.78263866 7.875 102.6875 C2.03606152 105.35310235 -4.07311467 105.18254569 -10.375 105.1875 C-11.59316406 105.20586914 -11.59316406 105.20586914 -12.8359375 105.22460938 C-25.82234506 105.2558267 -38.4934649 99.90980454 -48 91 C-61.06541786 76.32190504 -64.86949333 62.86938137 -64.17919922 43.51367188 C-63.54015547 34.54964671 -59.80552123 27.63884964 -54 21 C-53.44054687 20.32195312 -52.88109375 19.64390625 -52.3046875 18.9453125 C-48.65569291 14.60906332 -44.77793322 10.12221379 -40 7 C-39.01 7 -38.02 7 -37 7 C-37 6.34 -37 5.68 -37 5 C-32.91529647 1.93042989 -28.57235276 0.91663998 -23.6875 -0.1875 C-22.96626953 -0.36474609 -22.24503906 -0.54199219 -21.50195312 -0.72460938 C-13.93748271 -2.48173748 -7.43341527 -2.44102876 0 0 Z " fill="#030303" transform="translate(875,160)"/>
<path d="M0 0 C1.55353935 -0.01641403 3.10700789 -0.04350711 4.66015625 -0.08203125 C15.83870949 -0.35748307 26.4706146 0.06203085 35.27099609 7.99853516 C36.42728516 9.34818359 36.42728516 9.34818359 37.60693359 10.72509766 C38.40357422 11.61970703 39.20021484 12.51431641 40.02099609 13.43603516 C43.76067721 18.99340988 44.2587287 24.39689932 44.23193359 30.97509766 C44.23966797 32.88162109 44.23966797 32.88162109 44.24755859 34.82666016 C43.80856882 40.6497304 41.74043123 43.99149868 38.10693359 48.47509766 C37.42888672 49.32330078 36.75083984 50.17150391 36.05224609 51.04541016 C34.14299501 53.17080287 32.38329598 54.81282383 29.98193359 56.35009766 C29.32193359 56.35009766 28.66193359 56.35009766 27.98193359 56.35009766 C27.98193359 57.01009766 27.98193359 57.67009766 27.98193359 58.35009766 C18.96451175 60.41966988 9.84641402 61.89881058 0.98193359 58.35009766 C-5.36473985 54.35889064 -9.87144549 50.14679883 -13.01806641 43.35009766 C-13.53401367 42.44404785 -14.04996094 41.53799805 -14.58154297 40.60449219 C-16.24593622 36.83386643 -16.46071171 34.01566616 -16.56494141 29.90478516 C-16.58526428 29.2124881 -16.60558716 28.52019104 -16.62652588 27.80691528 C-16.66650494 26.35321498 -16.69975019 24.89931525 -16.7265625 23.4453125 C-16.76808479 21.22411421 -16.83075239 19.00427751 -16.89697266 16.78369141 C-17.21393724 4.43305641 -17.21393724 4.43305641 -16.01806641 1.35009766 C-11.52060201 -0.89863454 -4.99117765 0.03849772 0 0 Z " fill="#FBFBFB" transform="translate(962.01806640625,181.64990234375)"/>
<path d="M0 0 C7.01701113 4.34253278 13.0026055 10.67734934 14.94140625 18.8203125 C15.20703125 22.44140625 15.20703125 22.44140625 15.19140625 26.2578125 C15.19914063 28.14306641 15.19914063 28.14306641 15.20703125 30.06640625 C14.662288 37.76491006 12.23411683 43.29467089 6.94140625 48.8203125 C4.06640625 50.3203125 4.06640625 50.3203125 1.94140625 50.8203125 C1.94140625 51.4803125 1.94140625 52.1403125 1.94140625 52.8203125 C-6.34702142 57.47941351 -16.58736123 57.95573872 -25.8046875 55.75390625 C-29.97939128 54.02469619 -32.96047891 51.03290734 -36.05859375 47.8203125 C-36.62707031 47.29308594 -37.19554687 46.76585937 -37.78125 46.22265625 C-39.05859375 44.8203125 -39.05859375 44.8203125 -39.05859375 42.8203125 C-39.71859375 42.8203125 -40.37859375 42.8203125 -41.05859375 42.8203125 C-45.79491799 36.67366839 -45.49216635 27.8182221 -44.84375 20.34375 C-43.3645392 13.27171361 -38.72267831 6.18637768 -33.05859375 1.8203125 C-21.62318455 -3.91323062 -11.8078399 -5.38819291 0 0 Z " fill="#FCFCFC" transform="translate(879.05859375,185.1796875)"/>
<path d="M0 0 C2.24197316 1.44643429 2.7981491 2.32947804 3.55846977 4.85516262 C3.99848749 6.99265262 4.12579792 8.88802541 4.12698364 11.06739807 C4.12980347 11.86790588 4.13262329 12.6684137 4.13552856 13.49317932 C4.13350433 14.36240524 4.1314801 15.23163116 4.12939453 16.12719727 C4.13114685 17.0495517 4.13289917 17.97190613 4.13470459 18.92221069 C4.13910506 21.97029503 4.13619168 25.01832133 4.1328125 28.06640625 C4.133486 30.18342602 4.13445641 32.30044571 4.13571167 34.41746521 C4.13718615 38.85343157 4.13504187 43.28937778 4.13037109 47.7253418 C4.12467048 53.41740043 4.1279565 59.10941194 4.13394356 64.80146885 C4.13755293 69.1722601 4.13640891 73.54304013 4.13381577 77.91383171 C4.13314772 80.0130406 4.13397066 82.1122505 4.13629532 84.21145821 C4.13882834 87.14173211 4.13497215 90.07192911 4.12939453 93.00219727 C4.13141876 93.87344742 4.13344299 94.74469757 4.13552856 95.64234924 C4.12362008 99.01109038 4.07273783 101.7817865 3 105 C-0.75284085 107.5018939 -2.89806957 107.29930669 -7.375 107.3125 C-8.68210937 107.32925781 -9.98921875 107.34601563 -11.3359375 107.36328125 C-15.4196217 106.95839572 -18.08046134 105.91953866 -21 103 C-21.11649926 100.23742759 -21.16801584 97.49952462 -21.17700195 94.73583984 C-21.18357315 93.86911652 -21.19014435 93.00239319 -21.19691467 92.10940552 C-21.21670493 89.22658206 -21.22832534 86.34381092 -21.23828125 83.4609375 C-21.24439454 81.98602278 -21.24439454 81.98602278 -21.25063133 80.4813118 C-21.27152037 75.27318784 -21.28580758 70.06509043 -21.29516602 64.85693359 C-21.30621295 59.48001356 -21.34058499 54.10350938 -21.38033772 48.72673607 C-21.40651077 44.59167725 -21.41485867 40.45671716 -21.41844749 36.32158279 C-21.42331472 34.34008615 -21.43493257 32.35859396 -21.45348549 30.37717819 C-21.47788261 27.59796267 -21.47691039 24.8198176 -21.4699707 22.04052734 C-21.48278076 21.22569885 -21.49559082 20.41087036 -21.50878906 19.5713501 C-21.45778659 13.94909515 -20.30538988 10.59092444 -17 6 C-16.01 5.67 -15.02 5.34 -14 5 C-13.67 4.01 -13.34 3.02 -13 2 C-8.72222062 -0.46296389 -4.79618327 -0.38678897 0 0 Z " fill="#080808" transform="translate(1054,158)"/>
<path d="M0 0 C0.77601563 -0.00515625 1.55203125 -0.0103125 2.3515625 -0.015625 C4.375 0.25 4.375 0.25 6.375 2.25 C6.62947559 4.09909821 6.62947559 4.09909821 6.63569641 6.3873291 C6.64278122 7.25384598 6.64986603 8.12036285 6.65716553 9.01313782 C6.65468811 9.96593124 6.65221069 10.91872467 6.6496582 11.90039062 C6.6573246 13.40293648 6.6573246 13.40293648 6.66514587 14.93583679 C6.67908887 18.259368 6.67808171 21.58269296 6.67578125 24.90625 C6.67966529 27.20788653 6.68399935 29.50952235 6.68876648 31.81115723 C6.69623862 36.6399162 6.69593 41.46860206 6.69067383 46.29736328 C6.68487475 52.49861287 6.70181618 58.69956422 6.7250185 64.90076447 C6.73971806 69.65498619 6.74063276 74.40913544 6.73750877 79.16337585 C6.73802379 81.45042004 6.743295 83.73746809 6.75332069 86.02449036 C6.76559605 89.21639654 6.75894725 92.40771331 6.74731445 95.59960938 C6.75878006 97.02879951 6.75878006 97.02879951 6.77047729 98.48686218 C6.76346298 99.35337906 6.75644867 100.21989594 6.7492218 101.1126709 C6.74938954 101.86778709 6.74955729 102.62290329 6.74973011 103.40090179 C6.375 105.25 6.375 105.25 3.375 107.25 C0.68272741 107.47171657 -1.8721641 107.57454269 -4.5625 107.5625 C-5.27857422 107.57861328 -5.99464844 107.59472656 -6.73242188 107.61132812 C-9.66349749 107.6140446 -12.13120327 107.46783351 -14.83021545 106.27719116 C-17.66378982 103.0766973 -17.17291713 99.5189156 -17.12670898 95.45166016 C-17.13211197 94.55217148 -17.13751495 93.6526828 -17.14308167 92.72593689 C-17.15560869 89.746646 -17.13904889 86.76831417 -17.12109375 83.7890625 C-17.12124867 81.72024484 -17.12273653 79.65142689 -17.12550354 77.58261108 C-17.12688941 73.24309484 -17.1143001 68.90390835 -17.09155273 64.56445312 C-17.06320316 59.00356678 -17.0658934 53.44323001 -17.07864285 47.88230324 C-17.08560152 43.60832025 -17.07780794 39.33446408 -17.06538582 35.06049728 C-17.06087067 33.01039491 -17.06053507 30.96027893 -17.06445122 28.91017532 C-17.06736433 26.04221004 -17.05085014 23.17499887 -17.02905273 20.30712891 C-17.03355438 19.46019974 -17.03805603 18.61327057 -17.04269409 17.74067688 C-16.98383589 13.07549889 -16.61429055 10.05419482 -13.625 6.25 C-9.34916786 2.41271475 -5.83140042 -0.03900602 0 0 Z " fill="#020202" transform="translate(408.625,157.75)"/>
<path d="M0 0 C3.4786895 1.81496844 4.65308778 2.75280254 5.875 6.5 C4.84807535 10.40231368 3.39131476 13.55498429 1.4621582 17.0859375 C-2.57484038 24.57873005 -4.60510642 31.57291555 -6 39.9375 C-6.21140625 41.06220703 -6.4228125 42.18691406 -6.640625 43.34570312 C-8.72279684 55.11538228 -8.59540998 66.20126719 -6.4375 77.9375 C-6.25888428 78.93031982 -6.08026855 79.92313965 -5.89624023 80.94604492 C-3.99892803 90.96258141 -1.07499893 100.00859572 3.8125 109 C5.54955144 112.32115495 5.91964918 113.14280653 5.4375 117 C3.70835531 119.76663151 3.02733368 120.71191658 -0.125 121.5 C-3.29627754 121.63788163 -5.21058459 121.30544363 -7.6328125 119.171875 C-12.38208982 113.45284996 -14.9799584 106.54208644 -17.39599609 99.59375 C-17.87222362 98.22599137 -18.36413122 96.86356467 -18.87353516 95.5078125 C-27.48845962 72.12525843 -25.08864828 43.65871035 -17.125 20.5 C-16.88523438 19.80148926 -16.64546875 19.10297852 -16.3984375 18.38330078 C-14.59258504 13.30693536 -12.96957757 9.28103083 -9.125 5.5 C-8.795 4.51 -8.465 3.52 -8.125 2.5 C-5.14033207 0.02698943 -3.87835473 -0.62053676 0 0 Z " fill="#040404" transform="translate(221.125,155.5)"/>
<path d="M0 0 C1.83128365 2.24748448 1.99270367 3.94527752 2.375 6.8125 C2 10 2 10 0.0859375 13.19921875 C-2.17953133 17.0359974 -3.06313523 20.62821227 -3.75 25 C-3.87068848 25.7420166 -3.99137695 26.4840332 -4.11572266 27.24853516 C-5.73287629 37.97847532 -5.29801146 48.29619311 -3.75 59 C-3.64091309 59.78938965 -3.53182617 60.5787793 -3.41943359 61.39208984 C-2.55022867 66.74744025 -0.7987974 70.37166086 2 75 C2.25 78.4375 2.25 78.4375 2 81 C0.02 81.99 0.02 81.99 -2 83 C-2 83.66 -2 84.32 -2 85 C-4.6875 85.3125 -4.6875 85.3125 -8 85 C-13.61633502 80.42856452 -16.11330458 75.63123572 -17.4609375 68.6875 C-17.84780166 66.75878595 -18.29825475 64.8424172 -18.7890625 62.9375 C-22.46939028 48.07860652 -22.79284375 31.35716568 -17 17 C-16.61082644 15.44584936 -16.25478056 13.88290546 -15.9375 12.3125 C-15.46243977 9.97646 -15.06776078 8.13552156 -14 6 C-13.34 6 -12.68 6 -12 6 C-11.938125 5.401875 -11.87625 4.80375 -11.8125 4.1875 C-11 2 -11 2 -8.8125 0.1875 C-5.32740327 -1.28398529 -3.57068866 -1.19022955 0 0 Z " fill="#060606" transform="translate(246,174)"/>
<path d="M0 0 C5.73258805 2.50452876 10.81969908 6.57606213 14 12 C15.4393475 16.00961091 15.54265179 19.29894128 14.24609375 23.36328125 C11.35169229 29.36386963 7.03794685 33.22393248 1 36 C-5.1656349 37.69886445 -8.7417267 35.93159613 -14.203125 33.00390625 C-18.63639537 29.82755471 -20.67602 26.24718454 -22 21 C-22.39297655 15.82733189 -20.75918744 11.33586598 -18 7 C-12.7358753 2.02042259 -7.35510163 -1.01449678 0 0 Z " fill="#020202" transform="translate(272,198)"/>
<path d="M0 0 C1.32 0 2.64 0 4 0 C4 6.93 4 13.86 4 21 C-0.54545455 19.86363636 -0.54545455 19.86363636 -3 17 C-3.7425 16.21625 -4.485 15.4325 -5.25 14.625 C-7 12 -7 12 -7 9.3125 C-5.75569318 6.43504049 -4.73752914 6.32728686 -2 5 C-0.71745356 2.46229997 -0.71745356 2.46229997 0 0 Z " fill="#F5F5F5" transform="translate(166,206)"/>
<path d="M0 0 C0.66 0.33 1.32 0.66 2 1 C0.38405168 3.04119788 -1.2856382 5.04072937 -3 7 C-3.66 7 -4.32 7 -5 7 C-4.34 5.68 -3.68 4.36 -3 3 C-2.34 3 -1.68 3 -1 3 C-0.67 2.01 -0.34 1.02 0 0 Z " fill="#363636" transform="translate(1041,160)"/>
</svg>
